<svg width="172" height="185" viewBox="0 0 172 185" fill="none" xmlns="http://www.w3.org/2000/svg">
<path d="M0 41.4572C0 25.4487 0 17.4445 3.26368 11.9359C6.24968 6.89595 11.0197 3.16136 16.6288 1.47186C22.7596 -0.374755 30.53 1.54578 46.0709 5.38684L143.128 29.3753C153.116 31.844 158.11 33.0784 161.847 35.8269C165.286 38.3566 167.966 41.78 169.597 45.7256C171.368 50.0125 171.368 55.1569 171.368 65.4457V147.686C171.368 160.553 171.368 166.987 168.904 171.919C166.642 176.446 162.972 180.116 158.445 182.378C153.513 184.842 147.08 184.842 134.213 184.842H37.1557C24.2887 184.842 17.8551 184.842 12.9232 182.378C8.39646 180.116 4.72623 176.446 2.46432 171.919C0 166.987 0 160.553 0 147.686V41.4572Z" fill="#FC8877"/>
</svg>
