<svg width="172" height="185" viewBox="0 0 172 185" fill="none" xmlns="http://www.w3.org/2000/svg">
<path d="M171.368 41.7557C171.368 25.4722 171.368 17.3305 167.996 11.7541C165.04 6.86648 160.396 3.23075 154.942 1.53388C148.719 -0.402112 140.816 1.55141 125.008 5.45846L28.4183 29.3314C18.2594 31.8423 13.1799 33.0977 9.39694 35.9193C6.05927 38.4088 3.44738 41.7448 1.83147 45.5823C-1.52588e-05 49.9318 -1.52588e-05 55.1641 -1.52588e-05 65.6287V147.453C-1.52588e-05 160.54 -1.52588e-05 167.084 2.54699 172.083C4.7874 176.48 8.36231 180.055 12.7594 182.295C17.7581 184.842 24.3019 184.842 37.3895 184.842H133.979C147.066 184.842 153.61 184.842 158.609 182.295C163.006 180.055 166.581 176.48 168.821 172.083C171.368 167.084 171.368 160.54 171.368 147.453V41.7557Z" fill="#7787F4"/>
</svg>
